<svg width="85" height="66" viewBox="0 0 85 66" fill="none" xmlns="http://www.w3.org/2000/svg">
<path opacity="0.1" d="M2.94055 22.8394L67.3363 0.224368C68.1717 -0.0663677 69.0882 -0.0145003 69.8855 0.368633C70.6828 0.751767 71.2959 1.435 71.5909 2.26893L84.47 38.943C84.761 39.7784 84.7097 40.695 84.3272 41.4927C83.9447 42.2904 83.2622 42.9044 82.4286 43.2007L18.0328 65.8156C17.1969 66.1048 16.2807 66.0522 15.4834 65.6693C14.686 65.2864 14.0721 64.6042 13.7751 63.7711L0.895995 27.097C0.605157 26.2612 0.656943 25.3442 1.04004 24.5465C1.42313 23.7487 2.10639 23.135 2.94055 22.8394Z" fill="white"/>
</svg>
